<svg xmlns="http://www.w3.org/2000/svg" xmlns:xlink="http://www.w3.org/1999/xlink" width="336" zoomAndPan="magnify" viewBox="0 0 252 143.999998" height="192" preserveAspectRatio="xMidYMid meet" version="1.0"><defs><g/><clipPath id="id1"><path d="M 5.835938 46.816406 L 33.585938 46.816406 L 33.585938 122.566406 L 5.835938 122.566406 Z M 5.835938 46.816406 " clip-rule="nonzero"/></clipPath><clipPath id="id2"><path d="M 32.859375 37.847656 L 60.609375 37.847656 L 60.609375 113.597656 L 32.859375 113.597656 Z M 32.859375 37.847656 " clip-rule="nonzero"/></clipPath><clipPath id="id3"><path d="M 59.785156 28.875 L 88.285156 28.875 L 88.285156 104.625 L 59.785156 104.625 Z M 59.785156 28.875 " clip-rule="nonzero"/></clipPath></defs><path stroke-linecap="butt" transform="matrix(0.000000000000000184, 2.998252, -2.606335, 0.00000000000000016, 94.421166, 21.718054)" fill="none" stroke-linejoin="miter" d="M 0.000232029 -0.000271947 L 33.519767 -0.000271947 " stroke="#ffffff" stroke-width="1" stroke-opacity="1" stroke-miterlimit="4"/><g fill="#ffffff" fill-opacity="1"><g transform="translate(98.079239, 60.878905)"><g><path d="M 1.59375 0 L 1.59375 -13.765625 L 10.796875 -13.765625 L 10.796875 -11.15625 L 4.6875 -11.15625 L 4.6875 -8.28125 L 10.125 -8.28125 L 10.125 -5.6875 L 4.6875 -5.6875 L 4.6875 0 Z M 1.59375 0 "/></g></g></g><g fill="#ffffff" fill-opacity="1"><g transform="translate(109.47404, 60.878905)"><g><path d="M 1.59375 -13.765625 L 4.6875 -13.765625 L 4.6875 0 L 1.59375 0 Z M 1.59375 -13.765625 "/></g></g></g><g fill="#ffffff" fill-opacity="1"><g transform="translate(115.74713, 60.878905)"><g><path d="M 10.828125 0 C 9.941406 -1.570312 8.976562 -3.125 7.9375 -4.65625 C 6.90625 -6.195312 5.804688 -7.648438 4.640625 -9.015625 L 4.640625 0 L 1.59375 0 L 1.59375 -13.765625 L 4.109375 -13.765625 C 4.546875 -13.328125 5.03125 -12.789062 5.5625 -12.15625 C 6.09375 -11.519531 6.628906 -10.835938 7.171875 -10.109375 C 7.722656 -9.390625 8.269531 -8.644531 8.8125 -7.875 C 9.351562 -7.101562 9.863281 -6.359375 10.34375 -5.640625 L 10.34375 -13.765625 L 13.421875 -13.765625 L 13.421875 0 Z M 10.828125 0 "/></g></g></g><g fill="#ffffff" fill-opacity="1"><g transform="translate(130.754911, 60.878905)"><g><path d="M 10.796875 0 C 10.648438 -0.476562 10.488281 -0.96875 10.3125 -1.46875 C 10.132812 -1.96875 9.960938 -2.472656 9.796875 -2.984375 L 4.421875 -2.984375 C 4.253906 -2.472656 4.082031 -1.96875 3.90625 -1.46875 C 3.726562 -0.96875 3.566406 -0.476562 3.421875 0 L 0.203125 0 C 0.710938 -1.476562 1.195312 -2.847656 1.65625 -4.109375 C 2.125 -5.367188 2.578125 -6.550781 3.015625 -7.65625 C 3.460938 -8.769531 3.898438 -9.828125 4.328125 -10.828125 C 4.765625 -11.828125 5.21875 -12.804688 5.6875 -13.765625 L 8.640625 -13.765625 C 9.085938 -12.804688 9.53125 -11.828125 9.96875 -10.828125 C 10.40625 -9.828125 10.84375 -8.769531 11.28125 -7.65625 C 11.726562 -6.550781 12.179688 -5.367188 12.640625 -4.109375 C 13.109375 -2.847656 13.601562 -1.476562 14.125 0 Z M 7.09375 -10.640625 C 7.019531 -10.441406 6.914062 -10.171875 6.78125 -9.828125 C 6.65625 -9.484375 6.503906 -9.085938 6.328125 -8.640625 C 6.160156 -8.191406 5.972656 -7.691406 5.765625 -7.140625 C 5.566406 -6.597656 5.359375 -6.03125 5.140625 -5.4375 L 9.0625 -5.4375 C 8.84375 -6.03125 8.632812 -6.597656 8.4375 -7.140625 C 8.238281 -7.691406 8.050781 -8.191406 7.875 -8.640625 C 7.695312 -9.085938 7.539062 -9.484375 7.40625 -9.828125 C 7.269531 -10.171875 7.164062 -10.441406 7.09375 -10.640625 Z M 7.09375 -10.640625 "/></g></g></g><g fill="#ffffff" fill-opacity="1"><g transform="translate(145.067887, 60.878905)"><g><path d="M 7.859375 0.28125 C 5.628906 0.28125 3.925781 -0.335938 2.75 -1.578125 C 1.582031 -2.828125 1 -4.597656 1 -6.890625 C 1 -8.023438 1.175781 -9.039062 1.53125 -9.9375 C 1.882812 -10.832031 2.375 -11.585938 3 -12.203125 C 3.625 -12.816406 4.363281 -13.28125 5.21875 -13.59375 C 6.082031 -13.914062 7.015625 -14.078125 8.015625 -14.078125 C 8.597656 -14.078125 9.128906 -14.035156 9.609375 -13.953125 C 10.085938 -13.867188 10.503906 -13.769531 10.859375 -13.65625 C 11.222656 -13.539062 11.519531 -13.421875 11.75 -13.296875 C 11.988281 -13.179688 12.160156 -13.09375 12.265625 -13.03125 L 11.375 -10.53125 C 10.957031 -10.75 10.46875 -10.9375 9.90625 -11.09375 C 9.34375 -11.257812 8.703125 -11.34375 7.984375 -11.34375 C 7.503906 -11.34375 7.035156 -11.257812 6.578125 -11.09375 C 6.117188 -10.9375 5.710938 -10.679688 5.359375 -10.328125 C 5.015625 -9.984375 4.734375 -9.53125 4.515625 -8.96875 C 4.304688 -8.414062 4.203125 -7.742188 4.203125 -6.953125 C 4.203125 -6.316406 4.269531 -5.722656 4.40625 -5.171875 C 4.550781 -4.617188 4.78125 -4.144531 5.09375 -3.75 C 5.40625 -3.351562 5.8125 -3.039062 6.3125 -2.8125 C 6.8125 -2.582031 7.421875 -2.46875 8.140625 -2.46875 C 8.585938 -2.46875 8.988281 -2.492188 9.34375 -2.546875 C 9.707031 -2.597656 10.023438 -2.660156 10.296875 -2.734375 C 10.578125 -2.804688 10.820312 -2.890625 11.03125 -2.984375 C 11.25 -3.078125 11.445312 -3.160156 11.625 -3.234375 L 12.46875 -0.75 C 12.03125 -0.488281 11.414062 -0.25 10.625 -0.03125 C 9.832031 0.175781 8.910156 0.28125 7.859375 0.28125 Z M 7.859375 0.28125 "/></g></g></g><g fill="#ffffff" fill-opacity="1"><g transform="translate(157.931698, 60.878905)"><g><path d="M 7.859375 0.28125 C 5.628906 0.28125 3.925781 -0.335938 2.75 -1.578125 C 1.582031 -2.828125 1 -4.597656 1 -6.890625 C 1 -8.023438 1.175781 -9.039062 1.53125 -9.9375 C 1.882812 -10.832031 2.375 -11.585938 3 -12.203125 C 3.625 -12.816406 4.363281 -13.28125 5.21875 -13.59375 C 6.082031 -13.914062 7.015625 -14.078125 8.015625 -14.078125 C 8.597656 -14.078125 9.128906 -14.035156 9.609375 -13.953125 C 10.085938 -13.867188 10.503906 -13.769531 10.859375 -13.65625 C 11.222656 -13.539062 11.519531 -13.421875 11.75 -13.296875 C 11.988281 -13.179688 12.160156 -13.09375 12.265625 -13.03125 L 11.375 -10.53125 C 10.957031 -10.75 10.46875 -10.9375 9.90625 -11.09375 C 9.34375 -11.257812 8.703125 -11.34375 7.984375 -11.34375 C 7.503906 -11.34375 7.035156 -11.257812 6.578125 -11.09375 C 6.117188 -10.9375 5.710938 -10.679688 5.359375 -10.328125 C 5.015625 -9.984375 4.734375 -9.53125 4.515625 -8.96875 C 4.304688 -8.414062 4.203125 -7.742188 4.203125 -6.953125 C 4.203125 -6.316406 4.269531 -5.722656 4.40625 -5.171875 C 4.550781 -4.617188 4.78125 -4.144531 5.09375 -3.75 C 5.40625 -3.351562 5.8125 -3.039062 6.3125 -2.8125 C 6.8125 -2.582031 7.421875 -2.46875 8.140625 -2.46875 C 8.585938 -2.46875 8.988281 -2.492188 9.34375 -2.546875 C 9.707031 -2.597656 10.023438 -2.660156 10.296875 -2.734375 C 10.578125 -2.804688 10.820312 -2.890625 11.03125 -2.984375 C 11.25 -3.078125 11.445312 -3.160156 11.625 -3.234375 L 12.46875 -0.75 C 12.03125 -0.488281 11.414062 -0.25 10.625 -0.03125 C 9.832031 0.175781 8.910156 0.28125 7.859375 0.28125 Z M 7.859375 0.28125 "/></g></g></g><g fill="#ffffff" fill-opacity="1"><g transform="translate(170.795509, 60.878905)"><g><path d="M 5.34375 -2.359375 C 5.78125 -2.359375 6.140625 -2.394531 6.421875 -2.46875 C 6.703125 -2.539062 6.929688 -2.640625 7.109375 -2.765625 C 7.285156 -2.890625 7.40625 -3.035156 7.46875 -3.203125 C 7.53125 -3.378906 7.5625 -3.578125 7.5625 -3.796875 C 7.5625 -4.242188 7.347656 -4.613281 6.921875 -4.90625 C 6.503906 -5.207031 5.78125 -5.53125 4.75 -5.875 C 4.300781 -6.03125 3.847656 -6.210938 3.390625 -6.421875 C 2.941406 -6.628906 2.535156 -6.890625 2.171875 -7.203125 C 1.816406 -7.515625 1.523438 -7.890625 1.296875 -8.328125 C 1.078125 -8.773438 0.96875 -9.316406 0.96875 -9.953125 C 0.96875 -10.585938 1.085938 -11.160156 1.328125 -11.671875 C 1.566406 -12.179688 1.90625 -12.613281 2.34375 -12.96875 C 2.78125 -13.320312 3.304688 -13.59375 3.921875 -13.78125 C 4.546875 -13.976562 5.25 -14.078125 6.03125 -14.078125 C 6.957031 -14.078125 7.757812 -13.976562 8.4375 -13.78125 C 9.113281 -13.582031 9.671875 -13.363281 10.109375 -13.125 L 9.21875 -10.6875 C 8.832031 -10.882812 8.40625 -11.054688 7.9375 -11.203125 C 7.46875 -11.359375 6.898438 -11.4375 6.234375 -11.4375 C 5.492188 -11.4375 4.960938 -11.332031 4.640625 -11.125 C 4.316406 -10.925781 4.15625 -10.613281 4.15625 -10.1875 C 4.15625 -9.9375 4.210938 -9.722656 4.328125 -9.546875 C 4.453125 -9.378906 4.617188 -9.222656 4.828125 -9.078125 C 5.046875 -8.941406 5.296875 -8.816406 5.578125 -8.703125 C 5.867188 -8.597656 6.1875 -8.484375 6.53125 -8.359375 C 7.25 -8.097656 7.867188 -7.835938 8.390625 -7.578125 C 8.921875 -7.316406 9.363281 -7.015625 9.71875 -6.671875 C 10.070312 -6.328125 10.332031 -5.921875 10.5 -5.453125 C 10.675781 -4.992188 10.765625 -4.429688 10.765625 -3.765625 C 10.765625 -2.484375 10.3125 -1.488281 9.40625 -0.78125 C 8.507812 -0.0703125 7.15625 0.28125 5.34375 0.28125 C 4.726562 0.28125 4.175781 0.242188 3.6875 0.171875 C 3.195312 0.0976562 2.765625 0.0078125 2.390625 -0.09375 C 2.015625 -0.207031 1.691406 -0.320312 1.421875 -0.4375 C 1.148438 -0.550781 0.921875 -0.664062 0.734375 -0.78125 L 1.609375 -3.234375 C 2.015625 -3.015625 2.519531 -2.8125 3.125 -2.625 C 3.726562 -2.445312 4.46875 -2.359375 5.34375 -2.359375 Z M 5.34375 -2.359375 "/></g></g></g><g fill="#ffffff" fill-opacity="1"><g transform="translate(98.079239, 82.628904)"><g><path d="M 7.875 0.28125 C 5.632812 0.28125 3.925781 -0.335938 2.75 -1.578125 C 1.582031 -2.828125 1 -4.597656 1 -6.890625 C 1 -8.035156 1.175781 -9.050781 1.53125 -9.9375 C 1.882812 -10.832031 2.375 -11.585938 3 -12.203125 C 3.625 -12.828125 4.363281 -13.296875 5.21875 -13.609375 C 6.082031 -13.929688 7.019531 -14.09375 8.03125 -14.09375 C 8.613281 -14.09375 9.140625 -14.046875 9.609375 -13.953125 C 10.085938 -13.867188 10.503906 -13.769531 10.859375 -13.65625 C 11.222656 -13.550781 11.523438 -13.4375 11.765625 -13.3125 C 12.003906 -13.195312 12.175781 -13.101562 12.28125 -13.03125 L 11.390625 -10.53125 C 10.960938 -10.757812 10.46875 -10.953125 9.90625 -11.109375 C 9.34375 -11.265625 8.703125 -11.34375 7.984375 -11.34375 C 7.515625 -11.34375 7.050781 -11.265625 6.59375 -11.109375 C 6.132812 -10.953125 5.726562 -10.695312 5.375 -10.34375 C 5.019531 -9.988281 4.738281 -9.535156 4.53125 -8.984375 C 4.320312 -8.429688 4.21875 -7.753906 4.21875 -6.953125 C 4.21875 -6.316406 4.285156 -5.722656 4.421875 -5.171875 C 4.554688 -4.628906 4.78125 -4.15625 5.09375 -3.75 C 5.40625 -3.351562 5.8125 -3.039062 6.3125 -2.8125 C 6.820312 -2.582031 7.4375 -2.46875 8.15625 -2.46875 C 8.601562 -2.46875 9.003906 -2.492188 9.359375 -2.546875 C 9.710938 -2.597656 10.03125 -2.660156 10.3125 -2.734375 C 10.59375 -2.804688 10.835938 -2.890625 11.046875 -2.984375 C 11.265625 -3.078125 11.457031 -3.160156 11.625 -3.234375 L 12.484375 -0.75 C 12.046875 -0.488281 11.425781 -0.25 10.625 -0.03125 C 9.832031 0.175781 8.914062 0.28125 7.875 0.28125 Z M 7.875 0.28125 "/></g></g></g><g fill="#ffffff" fill-opacity="1"><g transform="translate(110.950706, 82.628904)"><g><path d="M 4.1875 -6.890625 C 4.1875 -6.222656 4.269531 -5.613281 4.4375 -5.0625 C 4.601562 -4.519531 4.84375 -4.050781 5.15625 -3.65625 C 5.46875 -3.269531 5.847656 -2.96875 6.296875 -2.75 C 6.742188 -2.539062 7.257812 -2.4375 7.84375 -2.4375 C 8.414062 -2.4375 8.929688 -2.539062 9.390625 -2.75 C 9.847656 -2.96875 10.234375 -3.269531 10.546875 -3.65625 C 10.859375 -4.050781 11.09375 -4.519531 11.25 -5.0625 C 11.414062 -5.613281 11.5 -6.222656 11.5 -6.890625 C 11.5 -7.566406 11.414062 -8.179688 11.25 -8.734375 C 11.09375 -9.285156 10.859375 -9.753906 10.546875 -10.140625 C 10.234375 -10.535156 9.847656 -10.835938 9.390625 -11.046875 C 8.929688 -11.265625 8.414062 -11.375 7.84375 -11.375 C 7.257812 -11.375 6.742188 -11.265625 6.296875 -11.046875 C 5.847656 -10.828125 5.46875 -10.519531 5.15625 -10.125 C 4.84375 -9.738281 4.601562 -9.269531 4.4375 -8.71875 C 4.269531 -8.164062 4.1875 -7.554688 4.1875 -6.890625 Z M 14.703125 -6.890625 C 14.703125 -5.710938 14.523438 -4.675781 14.171875 -3.78125 C 13.828125 -2.882812 13.347656 -2.132812 12.734375 -1.53125 C 12.128906 -0.9375 11.40625 -0.484375 10.5625 -0.171875 C 9.71875 0.128906 8.8125 0.28125 7.84375 0.28125 C 6.90625 0.28125 6.019531 0.128906 5.1875 -0.171875 C 4.351562 -0.484375 3.625 -0.9375 3 -1.53125 C 2.375 -2.132812 1.882812 -2.882812 1.53125 -3.78125 C 1.175781 -4.675781 1 -5.710938 1 -6.890625 C 1 -8.078125 1.179688 -9.113281 1.546875 -10 C 1.921875 -10.894531 2.421875 -11.644531 3.046875 -12.25 C 3.679688 -12.863281 4.410156 -13.320312 5.234375 -13.625 C 6.066406 -13.9375 6.9375 -14.09375 7.84375 -14.09375 C 8.789062 -14.09375 9.679688 -13.9375 10.515625 -13.625 C 11.347656 -13.320312 12.078125 -12.863281 12.703125 -12.25 C 13.328125 -11.644531 13.816406 -10.894531 14.171875 -10 C 14.523438 -9.113281 14.703125 -8.078125 14.703125 -6.890625 Z M 14.703125 -6.890625 "/></g></g></g><g fill="#ffffff" fill-opacity="1"><g transform="translate(126.642764, 82.628904)"><g><path d="M 10.828125 0 C 9.941406 -1.570312 8.984375 -3.125 7.953125 -4.65625 C 6.921875 -6.195312 5.820312 -7.648438 4.65625 -9.015625 L 4.65625 0 L 1.59375 0 L 1.59375 -13.765625 L 4.109375 -13.765625 C 4.546875 -13.335938 5.03125 -12.800781 5.5625 -12.15625 C 6.09375 -11.519531 6.632812 -10.84375 7.1875 -10.125 C 7.738281 -9.40625 8.285156 -8.65625 8.828125 -7.875 C 9.367188 -7.101562 9.878906 -6.359375 10.359375 -5.640625 L 10.359375 -13.765625 L 13.4375 -13.765625 L 13.4375 0 Z M 10.828125 0 "/></g></g></g><g fill="#ffffff" fill-opacity="1"><g transform="translate(141.659471, 82.628904)"><g><path d="M 5.34375 -2.359375 C 5.78125 -2.359375 6.140625 -2.394531 6.421875 -2.46875 C 6.710938 -2.539062 6.941406 -2.640625 7.109375 -2.765625 C 7.285156 -2.898438 7.40625 -3.050781 7.46875 -3.21875 C 7.539062 -3.394531 7.578125 -3.585938 7.578125 -3.796875 C 7.578125 -4.242188 7.363281 -4.613281 6.9375 -4.90625 C 6.507812 -5.207031 5.78125 -5.535156 4.75 -5.890625 C 4.300781 -6.046875 3.847656 -6.222656 3.390625 -6.421875 C 2.941406 -6.628906 2.539062 -6.890625 2.1875 -7.203125 C 1.832031 -7.515625 1.539062 -7.890625 1.3125 -8.328125 C 1.082031 -8.773438 0.96875 -9.316406 0.96875 -9.953125 C 0.96875 -10.585938 1.085938 -11.160156 1.328125 -11.671875 C 1.566406 -12.179688 1.90625 -12.613281 2.34375 -12.96875 C 2.78125 -13.332031 3.3125 -13.609375 3.9375 -13.796875 C 4.5625 -13.992188 5.265625 -14.09375 6.046875 -14.09375 C 6.972656 -14.09375 7.769531 -13.992188 8.4375 -13.796875 C 9.113281 -13.597656 9.671875 -13.378906 10.109375 -13.140625 L 9.21875 -10.6875 C 8.832031 -10.882812 8.40625 -11.0625 7.9375 -11.21875 C 7.46875 -11.375 6.898438 -11.453125 6.234375 -11.453125 C 5.492188 -11.453125 4.960938 -11.347656 4.640625 -11.140625 C 4.316406 -10.929688 4.15625 -10.617188 4.15625 -10.203125 C 4.15625 -9.941406 4.210938 -9.722656 4.328125 -9.546875 C 4.453125 -9.378906 4.625 -9.226562 4.84375 -9.09375 C 5.0625 -8.957031 5.3125 -8.832031 5.59375 -8.71875 C 5.875 -8.601562 6.1875 -8.488281 6.53125 -8.375 C 7.25 -8.101562 7.875 -7.835938 8.40625 -7.578125 C 8.9375 -7.316406 9.375 -7.015625 9.71875 -6.671875 C 10.070312 -6.328125 10.332031 -5.921875 10.5 -5.453125 C 10.675781 -4.992188 10.765625 -4.4375 10.765625 -3.78125 C 10.765625 -2.488281 10.3125 -1.488281 9.40625 -0.78125 C 8.507812 -0.0703125 7.15625 0.28125 5.34375 0.28125 C 4.738281 0.28125 4.191406 0.242188 3.703125 0.171875 C 3.210938 0.0976562 2.773438 0.0078125 2.390625 -0.09375 C 2.015625 -0.207031 1.691406 -0.320312 1.421875 -0.4375 C 1.148438 -0.550781 0.921875 -0.664062 0.734375 -0.78125 L 1.609375 -3.234375 C 2.015625 -3.015625 2.519531 -2.8125 3.125 -2.625 C 3.726562 -2.445312 4.46875 -2.359375 5.34375 -2.359375 Z M 5.34375 -2.359375 "/></g></g></g><g fill="#ffffff" fill-opacity="1"><g transform="translate(153.219949, 82.628904)"><g><path d="M 6.96875 0.28125 C 6.007812 0.28125 5.175781 0.144531 4.46875 -0.125 C 3.769531 -0.394531 3.191406 -0.769531 2.734375 -1.25 C 2.273438 -1.738281 1.9375 -2.316406 1.71875 -2.984375 C 1.5 -3.660156 1.390625 -4.398438 1.390625 -5.203125 L 1.390625 -13.765625 L 4.484375 -13.765625 L 4.484375 -5.46875 C 4.484375 -4.90625 4.546875 -4.425781 4.671875 -4.03125 C 4.804688 -3.644531 4.984375 -3.328125 5.203125 -3.078125 C 5.421875 -2.835938 5.679688 -2.664062 5.984375 -2.5625 C 6.296875 -2.457031 6.640625 -2.40625 7.015625 -2.40625 C 7.773438 -2.40625 8.390625 -2.632812 8.859375 -3.09375 C 9.328125 -3.5625 9.5625 -4.351562 9.5625 -5.46875 L 9.5625 -13.765625 L 12.65625 -13.765625 L 12.65625 -5.203125 C 12.65625 -4.398438 12.539062 -3.660156 12.3125 -2.984375 C 12.09375 -2.304688 11.75 -1.722656 11.28125 -1.234375 C 10.820312 -0.753906 10.234375 -0.378906 9.515625 -0.109375 C 8.804688 0.148438 7.957031 0.28125 6.96875 0.28125 Z M 6.96875 0.28125 "/></g></g></g><g fill="#ffffff" fill-opacity="1"><g transform="translate(167.263348, 82.628904)"><g><path d="M 10.796875 -2.65625 L 10.796875 0 L 1.59375 0 L 1.59375 -13.765625 L 4.6875 -13.765625 L 4.6875 -2.65625 Z M 10.796875 -2.65625 "/></g></g></g><g fill="#ffffff" fill-opacity="1"><g transform="translate(178.446422, 82.628904)"><g><path d="M 11.8125 -13.765625 L 11.8125 -11.125 L 7.65625 -11.125 L 7.65625 0 L 4.546875 0 L 4.546875 -11.125 L 0.390625 -11.125 L 0.390625 -13.765625 Z M 11.8125 -13.765625 "/></g></g></g><g fill="#ffffff" fill-opacity="1"><g transform="translate(190.642527, 82.628904)"><g><path d="M 10.8125 0 C 10.664062 -0.476562 10.503906 -0.96875 10.328125 -1.46875 C 10.148438 -1.96875 9.972656 -2.472656 9.796875 -2.984375 L 4.4375 -2.984375 C 4.257812 -2.472656 4.082031 -1.96875 3.90625 -1.46875 C 3.726562 -0.96875 3.566406 -0.476562 3.421875 0 L 0.203125 0 C 0.710938 -1.476562 1.195312 -2.847656 1.65625 -4.109375 C 2.125 -5.367188 2.582031 -6.554688 3.03125 -7.671875 C 3.476562 -8.785156 3.914062 -9.84375 4.34375 -10.84375 C 4.769531 -11.84375 5.21875 -12.816406 5.6875 -13.765625 L 8.640625 -13.765625 C 9.097656 -12.816406 9.546875 -11.84375 9.984375 -10.84375 C 10.421875 -9.84375 10.859375 -8.785156 11.296875 -7.671875 C 11.742188 -6.554688 12.195312 -5.367188 12.65625 -4.109375 C 13.125 -2.847656 13.613281 -1.476562 14.125 0 Z M 7.09375 -10.65625 C 7.03125 -10.457031 6.929688 -10.1875 6.796875 -9.84375 C 6.660156 -9.5 6.503906 -9.097656 6.328125 -8.640625 C 6.160156 -8.191406 5.972656 -7.695312 5.765625 -7.15625 C 5.566406 -6.613281 5.359375 -6.046875 5.140625 -5.453125 L 9.0625 -5.453125 C 8.851562 -6.046875 8.648438 -6.613281 8.453125 -7.15625 C 8.253906 -7.695312 8.0625 -8.191406 7.875 -8.640625 C 7.695312 -9.097656 7.539062 -9.5 7.40625 -9.84375 C 7.28125 -10.1875 7.175781 -10.457031 7.09375 -10.65625 Z M 7.09375 -10.65625 "/></g></g></g><g fill="#ffffff" fill-opacity="1"><g transform="translate(204.964018, 82.628904)"><g><path d="M 10.828125 0 C 9.941406 -1.570312 8.984375 -3.125 7.953125 -4.65625 C 6.921875 -6.195312 5.820312 -7.648438 4.65625 -9.015625 L 4.65625 0 L 1.59375 0 L 1.59375 -13.765625 L 4.109375 -13.765625 C 4.546875 -13.335938 5.03125 -12.800781 5.5625 -12.15625 C 6.09375 -11.519531 6.632812 -10.84375 7.1875 -10.125 C 7.738281 -9.40625 8.285156 -8.65625 8.828125 -7.875 C 9.367188 -7.101562 9.878906 -6.359375 10.359375 -5.640625 L 10.359375 -13.765625 L 13.4375 -13.765625 L 13.4375 0 Z M 10.828125 0 "/></g></g></g><g fill="#ffffff" fill-opacity="1"><g transform="translate(219.980725, 82.628904)"><g><path d="M 7.875 0.28125 C 5.632812 0.28125 3.925781 -0.335938 2.75 -1.578125 C 1.582031 -2.828125 1 -4.597656 1 -6.890625 C 1 -8.035156 1.175781 -9.050781 1.53125 -9.9375 C 1.882812 -10.832031 2.375 -11.585938 3 -12.203125 C 3.625 -12.828125 4.363281 -13.296875 5.21875 -13.609375 C 6.082031 -13.929688 7.019531 -14.09375 8.03125 -14.09375 C 8.613281 -14.09375 9.140625 -14.046875 9.609375 -13.953125 C 10.085938 -13.867188 10.503906 -13.769531 10.859375 -13.65625 C 11.222656 -13.550781 11.523438 -13.4375 11.765625 -13.3125 C 12.003906 -13.195312 12.175781 -13.101562 12.28125 -13.03125 L 11.390625 -10.53125 C 10.960938 -10.757812 10.46875 -10.953125 9.90625 -11.109375 C 9.34375 -11.265625 8.703125 -11.34375 7.984375 -11.34375 C 7.515625 -11.34375 7.050781 -11.265625 6.59375 -11.109375 C 6.132812 -10.953125 5.726562 -10.695312 5.375 -10.34375 C 5.019531 -9.988281 4.738281 -9.535156 4.53125 -8.984375 C 4.320312 -8.429688 4.21875 -7.753906 4.21875 -6.953125 C 4.21875 -6.316406 4.285156 -5.722656 4.421875 -5.171875 C 4.554688 -4.628906 4.78125 -4.15625 5.09375 -3.75 C 5.40625 -3.351562 5.8125 -3.039062 6.3125 -2.8125 C 6.820312 -2.582031 7.4375 -2.46875 8.15625 -2.46875 C 8.601562 -2.46875 9.003906 -2.492188 9.359375 -2.546875 C 9.710938 -2.597656 10.03125 -2.660156 10.3125 -2.734375 C 10.59375 -2.804688 10.835938 -2.890625 11.046875 -2.984375 C 11.265625 -3.078125 11.457031 -3.160156 11.625 -3.234375 L 12.484375 -0.75 C 12.046875 -0.488281 11.425781 -0.25 10.625 -0.03125 C 9.832031 0.175781 8.914062 0.28125 7.875 0.28125 Z M 7.875 0.28125 "/></g></g></g><g fill="#ffffff" fill-opacity="1"><g transform="translate(232.852192, 82.628904)"><g><path d="M 6.640625 -8.109375 C 7.191406 -9.046875 7.71875 -9.984375 8.21875 -10.921875 C 8.726562 -11.867188 9.195312 -12.816406 9.625 -13.765625 L 13.03125 -13.765625 C 12.28125 -12.285156 11.5 -10.847656 10.6875 -9.453125 C 9.882812 -8.066406 9.03125 -6.671875 8.125 -5.265625 L 8.125 0 L 5.03125 0 L 5.03125 -5.234375 C 4.125 -6.628906 3.265625 -8.03125 2.453125 -9.4375 C 1.640625 -10.84375 0.851562 -12.285156 0.09375 -13.765625 L 3.703125 -13.765625 C 4.117188 -12.816406 4.570312 -11.867188 5.0625 -10.921875 C 5.550781 -9.984375 6.078125 -9.046875 6.640625 -8.109375 Z M 6.640625 -8.109375 "/></g></g></g><g fill="#ffffff" fill-opacity="1"><g transform="translate(98.079239, 104.378902)"><g><path d="M 0.703125 -3.65625 C 0.703125 -4.15625 0.773438 -4.613281 0.921875 -5.03125 C 1.066406 -5.457031 1.257812 -5.835938 1.5 -6.171875 C 1.75 -6.503906 2.035156 -6.800781 2.359375 -7.0625 C 2.679688 -7.320312 3.019531 -7.550781 3.375 -7.75 C 3.0625 -8.132812 2.773438 -8.546875 2.515625 -8.984375 C 2.265625 -9.429688 2.140625 -9.921875 2.140625 -10.453125 C 2.140625 -11.617188 2.488281 -12.515625 3.1875 -13.140625 C 3.894531 -13.773438 4.867188 -14.09375 6.109375 -14.09375 C 6.722656 -14.09375 7.257812 -14.007812 7.71875 -13.84375 C 8.1875 -13.675781 8.578125 -13.445312 8.890625 -13.15625 C 9.203125 -12.875 9.4375 -12.546875 9.59375 -12.171875 C 9.757812 -11.796875 9.84375 -11.390625 9.84375 -10.953125 C 9.84375 -10.140625 9.613281 -9.414062 9.15625 -8.78125 C 8.695312 -8.15625 8.113281 -7.632812 7.40625 -7.21875 L 9.640625 -4.984375 C 9.753906 -5.253906 9.867188 -5.585938 9.984375 -5.984375 C 10.097656 -6.390625 10.171875 -6.75 10.203125 -7.0625 L 12.65625 -6.734375 C 12.632812 -6.484375 12.585938 -6.207031 12.515625 -5.90625 C 12.453125 -5.613281 12.367188 -5.3125 12.265625 -5 C 12.171875 -4.695312 12.0625 -4.394531 11.9375 -4.09375 C 11.8125 -3.789062 11.675781 -3.515625 11.53125 -3.265625 C 11.945312 -2.785156 12.359375 -2.265625 12.765625 -1.703125 C 13.171875 -1.140625 13.519531 -0.570312 13.8125 0 L 10.765625 0 C 10.660156 -0.175781 10.515625 -0.390625 10.328125 -0.640625 C 10.148438 -0.898438 9.96875 -1.125 9.78125 -1.3125 C 9.25 -0.882812 8.628906 -0.53125 7.921875 -0.25 C 7.222656 0.03125 6.4375 0.171875 5.5625 0.171875 C 4.632812 0.171875 3.859375 0.0546875 3.234375 -0.171875 C 2.617188 -0.398438 2.117188 -0.695312 1.734375 -1.0625 C 1.359375 -1.425781 1.09375 -1.835938 0.9375 -2.296875 C 0.78125 -2.753906 0.703125 -3.207031 0.703125 -3.65625 Z M 3.453125 -3.953125 C 3.453125 -3.753906 3.492188 -3.546875 3.578125 -3.328125 C 3.660156 -3.117188 3.789062 -2.925781 3.96875 -2.75 C 4.144531 -2.570312 4.367188 -2.425781 4.640625 -2.3125 C 4.921875 -2.195312 5.265625 -2.140625 5.671875 -2.140625 C 6.222656 -2.140625 6.707031 -2.210938 7.125 -2.359375 C 7.539062 -2.503906 7.890625 -2.695312 8.171875 -2.9375 L 4.984375 -6.140625 C 4.796875 -6.046875 4.613281 -5.929688 4.4375 -5.796875 C 4.257812 -5.671875 4.097656 -5.515625 3.953125 -5.328125 C 3.804688 -5.148438 3.6875 -4.945312 3.59375 -4.71875 C 3.5 -4.5 3.453125 -4.242188 3.453125 -3.953125 Z M 7.3125 -10.8125 C 7.3125 -11.113281 7.210938 -11.382812 7.015625 -11.625 C 6.816406 -11.863281 6.484375 -11.984375 6.015625 -11.984375 C 5.597656 -11.984375 5.269531 -11.851562 5.03125 -11.59375 C 4.800781 -11.332031 4.6875 -11 4.6875 -10.59375 C 4.6875 -10.25 4.785156 -9.914062 4.984375 -9.59375 C 5.179688 -9.269531 5.441406 -8.960938 5.765625 -8.671875 C 6.191406 -8.898438 6.554688 -9.179688 6.859375 -9.515625 C 7.160156 -9.847656 7.3125 -10.28125 7.3125 -10.8125 Z M 7.3125 -10.8125 "/></g></g></g><g fill="#ffffff" fill-opacity="1"><g transform="translate(112.082915, 104.378902)"><g/></g></g><g fill="#ffffff" fill-opacity="1"><g transform="translate(116.850123, 104.378902)"><g><path d="M 5.34375 -2.359375 C 5.78125 -2.359375 6.140625 -2.394531 6.421875 -2.46875 C 6.710938 -2.539062 6.941406 -2.640625 7.109375 -2.765625 C 7.285156 -2.898438 7.40625 -3.050781 7.46875 -3.21875 C 7.539062 -3.394531 7.578125 -3.585938 7.578125 -3.796875 C 7.578125 -4.242188 7.363281 -4.613281 6.9375 -4.90625 C 6.507812 -5.207031 5.78125 -5.535156 4.75 -5.890625 C 4.300781 -6.046875 3.847656 -6.222656 3.390625 -6.421875 C 2.941406 -6.628906 2.539062 -6.890625 2.1875 -7.203125 C 1.832031 -7.515625 1.539062 -7.890625 1.3125 -8.328125 C 1.082031 -8.773438 0.96875 -9.316406 0.96875 -9.953125 C 0.96875 -10.585938 1.085938 -11.160156 1.328125 -11.671875 C 1.566406 -12.179688 1.90625 -12.613281 2.34375 -12.96875 C 2.78125 -13.332031 3.3125 -13.609375 3.9375 -13.796875 C 4.5625 -13.992188 5.265625 -14.09375 6.046875 -14.09375 C 6.972656 -14.09375 7.769531 -13.992188 8.4375 -13.796875 C 9.113281 -13.597656 9.671875 -13.378906 10.109375 -13.140625 L 9.21875 -10.6875 C 8.832031 -10.882812 8.40625 -11.0625 7.9375 -11.21875 C 7.46875 -11.375 6.898438 -11.453125 6.234375 -11.453125 C 5.492188 -11.453125 4.960938 -11.347656 4.640625 -11.140625 C 4.316406 -10.929688 4.15625 -10.617188 4.15625 -10.203125 C 4.15625 -9.941406 4.210938 -9.722656 4.328125 -9.546875 C 4.453125 -9.378906 4.625 -9.226562 4.84375 -9.09375 C 5.0625 -8.957031 5.3125 -8.832031 5.59375 -8.71875 C 5.875 -8.601562 6.1875 -8.488281 6.53125 -8.375 C 7.25 -8.101562 7.875 -7.835938 8.40625 -7.578125 C 8.9375 -7.316406 9.375 -7.015625 9.71875 -6.671875 C 10.070312 -6.328125 10.332031 -5.921875 10.5 -5.453125 C 10.675781 -4.992188 10.765625 -4.4375 10.765625 -3.78125 C 10.765625 -2.488281 10.3125 -1.488281 9.40625 -0.78125 C 8.507812 -0.0703125 7.15625 0.28125 5.34375 0.28125 C 4.738281 0.28125 4.191406 0.242188 3.703125 0.171875 C 3.210938 0.0976562 2.773438 0.0078125 2.390625 -0.09375 C 2.015625 -0.207031 1.691406 -0.320312 1.421875 -0.4375 C 1.148438 -0.550781 0.921875 -0.664062 0.734375 -0.78125 L 1.609375 -3.234375 C 2.015625 -3.015625 2.519531 -2.8125 3.125 -2.625 C 3.726562 -2.445312 4.46875 -2.359375 5.34375 -2.359375 Z M 5.34375 -2.359375 "/></g></g></g><g fill="#ffffff" fill-opacity="1"><g transform="translate(128.410601, 104.378902)"><g><path d="M 4.1875 -6.890625 C 4.1875 -6.222656 4.269531 -5.613281 4.4375 -5.0625 C 4.601562 -4.519531 4.84375 -4.050781 5.15625 -3.65625 C 5.46875 -3.269531 5.847656 -2.96875 6.296875 -2.75 C 6.742188 -2.539062 7.257812 -2.4375 7.84375 -2.4375 C 8.414062 -2.4375 8.929688 -2.539062 9.390625 -2.75 C 9.847656 -2.96875 10.234375 -3.269531 10.546875 -3.65625 C 10.859375 -4.050781 11.09375 -4.519531 11.25 -5.0625 C 11.414062 -5.613281 11.5 -6.222656 11.5 -6.890625 C 11.5 -7.566406 11.414062 -8.179688 11.25 -8.734375 C 11.09375 -9.285156 10.859375 -9.753906 10.546875 -10.140625 C 10.234375 -10.535156 9.847656 -10.835938 9.390625 -11.046875 C 8.929688 -11.265625 8.414062 -11.375 7.84375 -11.375 C 7.257812 -11.375 6.742188 -11.265625 6.296875 -11.046875 C 5.847656 -10.828125 5.46875 -10.519531 5.15625 -10.125 C 4.84375 -9.738281 4.601562 -9.269531 4.4375 -8.71875 C 4.269531 -8.164062 4.1875 -7.554688 4.1875 -6.890625 Z M 14.703125 -6.890625 C 14.703125 -5.710938 14.523438 -4.675781 14.171875 -3.78125 C 13.828125 -2.882812 13.347656 -2.132812 12.734375 -1.53125 C 12.128906 -0.9375 11.40625 -0.484375 10.5625 -0.171875 C 9.71875 0.128906 8.8125 0.28125 7.84375 0.28125 C 6.90625 0.28125 6.019531 0.128906 5.1875 -0.171875 C 4.351562 -0.484375 3.625 -0.9375 3 -1.53125 C 2.375 -2.132812 1.882812 -2.882812 1.53125 -3.78125 C 1.175781 -4.675781 1 -5.710938 1 -6.890625 C 1 -8.078125 1.179688 -9.113281 1.546875 -10 C 1.921875 -10.894531 2.421875 -11.644531 3.046875 -12.25 C 3.679688 -12.863281 4.410156 -13.320312 5.234375 -13.625 C 6.066406 -13.9375 6.9375 -14.09375 7.84375 -14.09375 C 8.789062 -14.09375 9.679688 -13.9375 10.515625 -13.625 C 11.347656 -13.320312 12.078125 -12.863281 12.703125 -12.25 C 13.328125 -11.644531 13.816406 -10.894531 14.171875 -10 C 14.523438 -9.113281 14.703125 -8.078125 14.703125 -6.890625 Z M 14.703125 -6.890625 "/></g></g></g><g fill="#ffffff" fill-opacity="1"><g transform="translate(144.102659, 104.378902)"><g><path d="M 10.796875 -2.65625 L 10.796875 0 L 1.59375 0 L 1.59375 -13.765625 L 4.6875 -13.765625 L 4.6875 -2.65625 Z M 10.796875 -2.65625 "/></g></g></g><g fill="#ffffff" fill-opacity="1"><g transform="translate(155.285733, 104.378902)"><g><path d="M 6.96875 0.28125 C 6.007812 0.28125 5.175781 0.144531 4.46875 -0.125 C 3.769531 -0.394531 3.191406 -0.769531 2.734375 -1.25 C 2.273438 -1.738281 1.9375 -2.316406 1.71875 -2.984375 C 1.5 -3.660156 1.390625 -4.398438 1.390625 -5.203125 L 1.390625 -13.765625 L 4.484375 -13.765625 L 4.484375 -5.46875 C 4.484375 -4.90625 4.546875 -4.425781 4.671875 -4.03125 C 4.804688 -3.644531 4.984375 -3.328125 5.203125 -3.078125 C 5.421875 -2.835938 5.679688 -2.664062 5.984375 -2.5625 C 6.296875 -2.457031 6.640625 -2.40625 7.015625 -2.40625 C 7.773438 -2.40625 8.390625 -2.632812 8.859375 -3.09375 C 9.328125 -3.5625 9.5625 -4.351562 9.5625 -5.46875 L 9.5625 -13.765625 L 12.65625 -13.765625 L 12.65625 -5.203125 C 12.65625 -4.398438 12.539062 -3.660156 12.3125 -2.984375 C 12.09375 -2.304688 11.75 -1.722656 11.28125 -1.234375 C 10.820312 -0.753906 10.234375 -0.378906 9.515625 -0.109375 C 8.804688 0.148438 7.957031 0.28125 6.96875 0.28125 Z M 6.96875 0.28125 "/></g></g></g><g fill="#ffffff" fill-opacity="1"><g transform="translate(169.329132, 104.378902)"><g><path d="M 11.8125 -13.765625 L 11.8125 -11.125 L 7.65625 -11.125 L 7.65625 0 L 4.546875 0 L 4.546875 -11.125 L 0.390625 -11.125 L 0.390625 -13.765625 Z M 11.8125 -13.765625 "/></g></g></g><g fill="#ffffff" fill-opacity="1"><g transform="translate(181.525237, 104.378902)"><g><path d="M 1.59375 -13.765625 L 4.6875 -13.765625 L 4.6875 0 L 1.59375 0 Z M 1.59375 -13.765625 "/></g></g></g><g fill="#ffffff" fill-opacity="1"><g transform="translate(187.802058, 104.378902)"><g><path d="M 4.1875 -6.890625 C 4.1875 -6.222656 4.269531 -5.613281 4.4375 -5.0625 C 4.601562 -4.519531 4.84375 -4.050781 5.15625 -3.65625 C 5.46875 -3.269531 5.847656 -2.96875 6.296875 -2.75 C 6.742188 -2.539062 7.257812 -2.4375 7.84375 -2.4375 C 8.414062 -2.4375 8.929688 -2.539062 9.390625 -2.75 C 9.847656 -2.96875 10.234375 -3.269531 10.546875 -3.65625 C 10.859375 -4.050781 11.09375 -4.519531 11.25 -5.0625 C 11.414062 -5.613281 11.5 -6.222656 11.5 -6.890625 C 11.5 -7.566406 11.414062 -8.179688 11.25 -8.734375 C 11.09375 -9.285156 10.859375 -9.753906 10.546875 -10.140625 C 10.234375 -10.535156 9.847656 -10.835938 9.390625 -11.046875 C 8.929688 -11.265625 8.414062 -11.375 7.84375 -11.375 C 7.257812 -11.375 6.742188 -11.265625 6.296875 -11.046875 C 5.847656 -10.828125 5.46875 -10.519531 5.15625 -10.125 C 4.84375 -9.738281 4.601562 -9.269531 4.4375 -8.71875 C 4.269531 -8.164062 4.1875 -7.554688 4.1875 -6.890625 Z M 14.703125 -6.890625 C 14.703125 -5.710938 14.523438 -4.675781 14.171875 -3.78125 C 13.828125 -2.882812 13.347656 -2.132812 12.734375 -1.53125 C 12.128906 -0.9375 11.40625 -0.484375 10.5625 -0.171875 C 9.71875 0.128906 8.8125 0.28125 7.84375 0.28125 C 6.90625 0.28125 6.019531 0.128906 5.1875 -0.171875 C 4.351562 -0.484375 3.625 -0.9375 3 -1.53125 C 2.375 -2.132812 1.882812 -2.882812 1.53125 -3.78125 C 1.175781 -4.675781 1 -5.710938 1 -6.890625 C 1 -8.078125 1.179688 -9.113281 1.546875 -10 C 1.921875 -10.894531 2.421875 -11.644531 3.046875 -12.25 C 3.679688 -12.863281 4.410156 -13.320312 5.234375 -13.625 C 6.066406 -13.9375 6.9375 -14.09375 7.84375 -14.09375 C 8.789062 -14.09375 9.679688 -13.9375 10.515625 -13.625 C 11.347656 -13.320312 12.078125 -12.863281 12.703125 -12.25 C 13.328125 -11.644531 13.816406 -10.894531 14.171875 -10 C 14.523438 -9.113281 14.703125 -8.078125 14.703125 -6.890625 Z M 14.703125 -6.890625 "/></g></g></g><g fill="#ffffff" fill-opacity="1"><g transform="translate(203.494116, 104.378902)"><g><path d="M 10.828125 0 C 9.941406 -1.570312 8.984375 -3.125 7.953125 -4.65625 C 6.921875 -6.195312 5.820312 -7.648438 4.65625 -9.015625 L 4.65625 0 L 1.59375 0 L 1.59375 -13.765625 L 4.109375 -13.765625 C 4.546875 -13.335938 5.03125 -12.800781 5.5625 -12.15625 C 6.09375 -11.519531 6.632812 -10.84375 7.1875 -10.125 C 7.738281 -9.40625 8.285156 -8.65625 8.828125 -7.875 C 9.367188 -7.101562 9.878906 -6.359375 10.359375 -5.640625 L 10.359375 -13.765625 L 13.4375 -13.765625 L 13.4375 0 Z M 10.828125 0 "/></g></g></g><g fill="#ffffff" fill-opacity="1"><g transform="translate(218.510823, 104.378902)"><g><path d="M 5.34375 -2.359375 C 5.78125 -2.359375 6.140625 -2.394531 6.421875 -2.46875 C 6.710938 -2.539062 6.941406 -2.640625 7.109375 -2.765625 C 7.285156 -2.898438 7.40625 -3.050781 7.46875 -3.21875 C 7.539062 -3.394531 7.578125 -3.585938 7.578125 -3.796875 C 7.578125 -4.242188 7.363281 -4.613281 6.9375 -4.90625 C 6.507812 -5.207031 5.78125 -5.535156 4.75 -5.890625 C 4.300781 -6.046875 3.847656 -6.222656 3.390625 -6.421875 C 2.941406 -6.628906 2.539062 -6.890625 2.1875 -7.203125 C 1.832031 -7.515625 1.539062 -7.890625 1.3125 -8.328125 C 1.082031 -8.773438 0.96875 -9.316406 0.96875 -9.953125 C 0.96875 -10.585938 1.085938 -11.160156 1.328125 -11.671875 C 1.566406 -12.179688 1.90625 -12.613281 2.34375 -12.96875 C 2.78125 -13.332031 3.3125 -13.609375 3.9375 -13.796875 C 4.5625 -13.992188 5.265625 -14.09375 6.046875 -14.09375 C 6.972656 -14.09375 7.769531 -13.992188 8.4375 -13.796875 C 9.113281 -13.597656 9.671875 -13.378906 10.109375 -13.140625 L 9.21875 -10.6875 C 8.832031 -10.882812 8.40625 -11.0625 7.9375 -11.21875 C 7.46875 -11.375 6.898438 -11.453125 6.234375 -11.453125 C 5.492188 -11.453125 4.960938 -11.347656 4.640625 -11.140625 C 4.316406 -10.929688 4.15625 -10.617188 4.15625 -10.203125 C 4.15625 -9.941406 4.210938 -9.722656 4.328125 -9.546875 C 4.453125 -9.378906 4.625 -9.226562 4.84375 -9.09375 C 5.0625 -8.957031 5.3125 -8.832031 5.59375 -8.71875 C 5.875 -8.601562 6.1875 -8.488281 6.53125 -8.375 C 7.25 -8.101562 7.875 -7.835938 8.40625 -7.578125 C 8.9375 -7.316406 9.375 -7.015625 9.71875 -6.671875 C 10.070312 -6.328125 10.332031 -5.921875 10.5 -5.453125 C 10.675781 -4.992188 10.765625 -4.4375 10.765625 -3.78125 C 10.765625 -2.488281 10.3125 -1.488281 9.40625 -0.78125 C 8.507812 -0.0703125 7.15625 0.28125 5.34375 0.28125 C 4.738281 0.28125 4.191406 0.242188 3.703125 0.171875 C 3.210938 0.0976562 2.773438 0.0078125 2.390625 -0.09375 C 2.015625 -0.207031 1.691406 -0.320312 1.421875 -0.4375 C 1.148438 -0.550781 0.921875 -0.664062 0.734375 -0.78125 L 1.609375 -3.234375 C 2.015625 -3.015625 2.519531 -2.8125 3.125 -2.625 C 3.726562 -2.445312 4.46875 -2.359375 5.34375 -2.359375 Z M 5.34375 -2.359375 "/></g></g></g><g clip-path="url(#id1)"><path fill="#35629d" d="M 5.835938 46.816406 L 33.585938 46.816406 L 33.585938 122.566406 L 5.835938 122.566406 L 5.835938 46.816406 " fill-opacity="1" fill-rule="nonzero"/></g><g fill="#ffffff" fill-opacity="1"><g transform="translate(8.64595, 98.043384)"><g><path d="M 2.96875 0 L 2.96875 -25.765625 L 20.21875 -25.765625 L 20.21875 -20.890625 L 8.765625 -20.890625 L 8.765625 -15.5 L 18.953125 -15.5 L 18.953125 -10.625 L 8.765625 -10.625 L 8.765625 0 Z M 2.96875 0 "/></g></g></g><g clip-path="url(#id2)"><path fill="#2583ff" d="M 32.859375 37.847656 L 60.609375 37.847656 L 60.609375 113.597656 L 32.859375 113.597656 L 32.859375 37.847656 " fill-opacity="1" fill-rule="nonzero"/></g><g fill="#ffffff" fill-opacity="1"><g transform="translate(34.110908, 89.072703)"><g><path d="M 14.71875 0.515625 C 10.53125 0.515625 7.335938 -0.644531 5.140625 -2.96875 C 2.953125 -5.300781 1.859375 -8.613281 1.859375 -12.90625 C 1.859375 -15.03125 2.191406 -16.925781 2.859375 -18.59375 C 3.523438 -20.269531 4.441406 -21.6875 5.609375 -22.84375 C 6.773438 -24 8.160156 -24.875 9.765625 -25.46875 C 11.378906 -26.0625 13.128906 -26.359375 15.015625 -26.359375 C 16.109375 -26.359375 17.097656 -26.273438 17.984375 -26.109375 C 18.878906 -25.953125 19.660156 -25.765625 20.328125 -25.546875 C 21.003906 -25.335938 21.5625 -25.125 22 -24.90625 C 22.445312 -24.6875 22.769531 -24.515625 22.96875 -24.390625 L 21.296875 -19.703125 C 20.503906 -20.117188 19.582031 -20.472656 18.53125 -20.765625 C 17.476562 -21.066406 16.28125 -21.21875 14.9375 -21.21875 C 14.050781 -21.21875 13.179688 -21.066406 12.328125 -20.765625 C 11.472656 -20.472656 10.710938 -20 10.046875 -19.34375 C 9.390625 -18.6875 8.863281 -17.835938 8.46875 -16.796875 C 8.070312 -15.753906 7.875 -14.492188 7.875 -13.015625 C 7.875 -11.816406 8.003906 -10.703125 8.265625 -9.671875 C 8.523438 -8.648438 8.945312 -7.765625 9.53125 -7.015625 C 10.113281 -6.273438 10.875 -5.6875 11.8125 -5.25 C 12.757812 -4.820312 13.898438 -4.609375 15.234375 -4.609375 C 16.078125 -4.609375 16.832031 -4.65625 17.5 -4.75 C 18.175781 -4.851562 18.773438 -4.972656 19.296875 -5.109375 C 19.816406 -5.242188 20.273438 -5.398438 20.671875 -5.578125 C 21.066406 -5.753906 21.425781 -5.914062 21.75 -6.0625 L 23.34375 -1.40625 C 22.53125 -0.914062 21.378906 -0.472656 19.890625 -0.078125 C 18.398438 0.316406 16.675781 0.515625 14.71875 0.515625 Z M 14.71875 0.515625 "/></g></g></g><g clip-path="url(#id3)"><path fill="#35629d" d="M 59.785156 28.886719 L 88.285156 28.886719 L 88.285156 104.617188 L 59.785156 104.617188 L 59.785156 28.886719 " fill-opacity="1" fill-rule="nonzero"/></g><g fill="#ffffff" fill-opacity="1"><g transform="translate(61.651976, 80.102014)"><g><path d="M 10 -4.421875 C 10.8125 -4.421875 11.484375 -4.488281 12.015625 -4.625 C 12.554688 -4.757812 12.988281 -4.941406 13.3125 -5.171875 C 13.632812 -5.410156 13.851562 -5.691406 13.96875 -6.015625 C 14.09375 -6.335938 14.15625 -6.695312 14.15625 -7.09375 C 14.15625 -7.9375 13.757812 -8.632812 12.96875 -9.1875 C 12.175781 -9.75 10.816406 -10.351562 8.890625 -11 C 8.046875 -11.300781 7.203125 -11.640625 6.359375 -12.015625 C 5.515625 -12.398438 4.753906 -12.882812 4.078125 -13.46875 C 3.410156 -14.050781 2.867188 -14.757812 2.453125 -15.59375 C 2.035156 -16.425781 1.828125 -17.4375 1.828125 -18.625 C 1.828125 -19.8125 2.046875 -20.878906 2.484375 -21.828125 C 2.929688 -22.785156 3.5625 -23.597656 4.375 -24.265625 C 5.195312 -24.941406 6.191406 -25.457031 7.359375 -25.8125 C 8.523438 -26.175781 9.835938 -26.359375 11.296875 -26.359375 C 13.035156 -26.359375 14.535156 -26.171875 15.796875 -25.796875 C 17.054688 -25.421875 18.097656 -25.015625 18.921875 -24.578125 L 17.25 -20 C 16.53125 -20.375 15.726562 -20.703125 14.84375 -20.984375 C 13.96875 -21.265625 12.910156 -21.40625 11.671875 -21.40625 C 10.285156 -21.40625 9.285156 -21.210938 8.671875 -20.828125 C 8.066406 -20.453125 7.765625 -19.863281 7.765625 -19.0625 C 7.765625 -18.59375 7.875 -18.195312 8.09375 -17.875 C 8.320312 -17.550781 8.640625 -17.257812 9.046875 -17 C 9.460938 -16.738281 9.9375 -16.503906 10.46875 -16.296875 C 11 -16.085938 11.585938 -15.875 12.234375 -15.65625 C 13.566406 -15.15625 14.726562 -14.660156 15.71875 -14.171875 C 16.707031 -13.691406 17.53125 -13.128906 18.1875 -12.484375 C 18.851562 -11.835938 19.34375 -11.082031 19.65625 -10.21875 C 19.976562 -9.351562 20.140625 -8.300781 20.140625 -7.0625 C 20.140625 -4.65625 19.296875 -2.789062 17.609375 -1.46875 C 15.929688 -0.144531 13.394531 0.515625 10 0.515625 C 8.863281 0.515625 7.832031 0.445312 6.90625 0.3125 C 5.988281 0.175781 5.175781 0.0078125 4.46875 -0.1875 C 3.769531 -0.382812 3.164062 -0.59375 2.65625 -0.8125 C 2.144531 -1.039062 1.71875 -1.253906 1.375 -1.453125 L 3.015625 -6.0625 C 3.773438 -5.632812 4.71875 -5.253906 5.84375 -4.921875 C 6.976562 -4.585938 8.363281 -4.421875 10 -4.421875 Z M 10 -4.421875 "/></g></g></g></svg>